<svg width="18" height="18" viewBox="0 0 18 18" fill="none" xmlns="http://www.w3.org/2000/svg">
<rect width="18" height="18" rx="9" fill="#B57000"/>
<path d="M10.5183 9.397C10.863 9.60233 11.138 9.881 11.3433 10.233C11.556 10.5777 11.6623 10.9223 11.6623 11.267C11.6623 11.7143 11.5487 12.114 11.3213 12.466C11.094 12.818 10.7787 13.093 10.3753 13.291C9.97201 13.489 9.51001 13.588 8.98934 13.588C8.47601 13.588 8.01768 13.489 7.61434 13.291C7.21834 13.0857 6.90668 12.8033 6.67934 12.444C6.45201 12.0847 6.33834 11.6777 6.33834 11.223H7.38334C7.38334 11.5017 7.44934 11.751 7.58134 11.971C7.72068 12.1837 7.91134 12.3523 8.15334 12.477C8.40268 12.6017 8.68501 12.664 9.00034 12.664C9.31568 12.664 9.59801 12.6017 9.84734 12.477C10.0967 12.3523 10.291 12.1837 10.4303 11.971C10.5697 11.751 10.6393 11.5017 10.6393 11.223C10.6393 10.9517 10.5697 10.7133 10.4303 10.508C10.291 10.2953 10.0967 10.1303 9.84734 10.013C9.60534 9.89567 9.32668 9.837 9.01134 9.837H8.43934V8.946H9.02234C9.31568 8.946 9.57601 8.891 9.80334 8.781C10.0307 8.671 10.2067 8.52433 10.3313 8.341C10.456 8.15033 10.5183 7.93033 10.5183 7.681C10.5183 7.29967 10.3827 6.99167 10.1113 6.757C9.84734 6.515 9.49901 6.394 9.06634 6.394C8.78034 6.394 8.52734 6.449 8.30734 6.559C8.09468 6.669 7.92601 6.823 7.80134 7.021C7.67668 7.219 7.61434 7.44267 7.61434 7.692H6.56934C6.56934 7.25933 6.67568 6.87433 6.88834 6.537C7.10101 6.19967 7.39434 5.93933 7.76834 5.756C8.14968 5.56533 8.58234 5.47 9.06634 5.47C9.54301 5.47 9.96834 5.56533 10.3423 5.756C10.7163 5.93933 11.0097 6.196 11.2223 6.526C11.435 6.856 11.5413 7.23 11.5413 7.648C11.5413 7.956 11.4497 8.275 11.2663 8.605C11.083 8.92767 10.8337 9.19167 10.5183 9.397Z" fill="white"/>
</svg>
