<svg width="18" height="18" viewBox="0 0 18 18" fill="none" xmlns="http://www.w3.org/2000/svg">
<rect width="18" height="18" rx="9" fill="#C7CAD0"/>
<path d="M6.54528 12.609C6.72861 12.433 6.90095 12.2753 7.06228 12.136C7.22361 11.9893 7.39961 11.828 7.59028 11.652C8.20628 11.0947 8.69761 10.629 9.06428 10.255C9.43828 9.881 9.75361 9.49967 10.0103 9.111C10.2669 8.715 10.3953 8.34833 10.3953 8.011C10.3953 7.69567 10.3329 7.417 10.2083 7.175C10.0909 6.933 9.92228 6.74233 9.70228 6.603C9.48228 6.46367 9.22928 6.394 8.94328 6.394C8.62061 6.394 8.31261 6.504 8.01928 6.724C7.73328 6.93667 7.51328 7.208 7.35928 7.538L6.43528 7.142C6.64795 6.64333 6.98895 6.23633 7.45828 5.921C7.93495 5.60567 8.42995 5.448 8.94328 5.448C9.43461 5.448 9.86728 5.558 10.2413 5.778C10.6153 5.99067 10.9086 6.29133 11.1213 6.68C11.3339 7.06867 11.4403 7.51233 11.4403 8.011C11.4403 8.495 11.2899 8.98633 10.9893 9.485C10.6886 9.97633 10.3293 10.4347 9.91128 10.86C9.49328 11.278 8.95061 11.7803 8.28328 12.367C7.90195 12.697 7.55728 13.005 7.24928 13.291L6.54528 12.609ZM6.54528 12.609H11.5723V13.522H6.65528L6.54528 12.609Z" fill="white"/>
</svg>
