<svg width="13" height="16" viewBox="0 0 13 16" fill="none" xmlns="http://www.w3.org/2000/svg">
<path d="M0.599976 6.36905C0.599976 10.4122 4.13704 13.7558 5.70263 15.0377C5.9267 15.2211 6.04007 15.314 6.20723 15.361C6.3374 15.3977 6.52897 15.3977 6.65914 15.361C6.82662 15.3139 6.9392 15.222 7.1641 15.0378C8.7297 13.7559 12.2666 10.4126 12.2666 6.36942C12.2666 4.83932 11.652 3.37172 10.5581 2.28977C9.4641 1.20783 7.98047 0.600006 6.43338 0.600006C4.88628 0.600006 3.40248 1.20793 2.30852 2.28987C1.21456 3.37181 0.599976 4.83895 0.599976 6.36905Z" stroke="#1E53FF" stroke-width="1.2" stroke-linecap="round" stroke-linejoin="round"/>
<path d="M4.76664 5.60001C4.76664 6.52048 5.51283 7.26667 6.43331 7.26667C7.35378 7.26667 8.09998 6.52048 8.09998 5.60001C8.09998 4.67953 7.35378 3.93334 6.43331 3.93334C5.51283 3.93334 4.76664 4.67953 4.76664 5.60001Z" stroke="#1E53FF" stroke-width="1.2" stroke-linecap="round" stroke-linejoin="round"/>
</svg>
