<svg width="20" height="20" viewBox="0 0 20 20" fill="none" xmlns="http://www.w3.org/2000/svg">
<path d="M9.99996 13.3334C10.884 13.3334 11.7319 12.9822 12.357 12.3571C12.9821 11.732 13.3333 10.8841 13.3333 10.0001C13.3333 9.11603 12.9821 8.26818 12.357 7.64306C11.7319 7.01794 10.884 6.66675 9.99996 6.66675C9.1159 6.66675 8.26806 7.01794 7.64294 7.64306C7.01782 8.26818 6.66663 9.11603 6.66663 10.0001C6.66663 10.8841 7.01782 11.732 7.64294 12.3571C8.26806 12.9822 9.1159 13.3334 9.99996 13.3334Z" stroke="#4A5568" stroke-linecap="round" stroke-linejoin="round"/>
<path d="M2.5 13.3333V6.66667C2.5 5.5616 2.93899 4.50179 3.72039 3.72039C4.50179 2.93899 5.5616 2.5 6.66667 2.5H13.3333C14.4384 2.5 15.4982 2.93899 16.2796 3.72039C17.061 4.50179 17.5 5.5616 17.5 6.66667V13.3333C17.5 14.4384 17.061 15.4982 16.2796 16.2796C15.4982 17.061 14.4384 17.5 13.3333 17.5H6.66667C5.5616 17.5 4.50179 17.061 3.72039 16.2796C2.93899 15.4982 2.5 14.4384 2.5 13.3333Z" stroke="#4A5568"/>
<path d="M14.5834 5.42608L14.5927 5.41577" stroke="#4A5568" stroke-linecap="round" stroke-linejoin="round"/>
</svg>
