<svg width="20" height="20" viewBox="0 0 20 20" fill="none" xmlns="http://www.w3.org/2000/svg">
<path d="M2.04163 9.51595C2.04163 7.00178 2.29163 5.74428 3.07246 4.96345C3.85329 4.18262 5.11079 4.18262 7.62496 4.18262H12.375C14.8891 4.18262 16.1458 4.18262 16.9275 4.96345C17.7091 5.74428 17.9583 7.00178 17.9583 9.51595V10.4843C17.9583 12.9985 17.7083 14.256 16.9275 15.0368C16.1466 15.8176 14.8891 15.8176 12.375 15.8176H7.62496C5.11079 15.8176 3.85329 15.8176 3.07246 15.0368C2.29163 14.256 2.04163 12.9985 2.04163 10.4843V9.51595Z" stroke="#4A5568" stroke-linecap="round" stroke-linejoin="round"/>
<path d="M12.2383 9.57585L8.68163 7.35335C8.60593 7.30603 8.51894 7.27985 8.42971 7.27751C8.34047 7.27518 8.25224 7.29678 8.17417 7.34006C8.0961 7.38335 8.03104 7.44675 7.98575 7.52367C7.94047 7.6006 7.9166 7.68825 7.91663 7.77751V12.2233C7.91674 12.3125 7.94072 12.4001 7.98607 12.4769C8.03142 12.5537 8.09649 12.617 8.17453 12.6602C8.25258 12.7033 8.34075 12.7249 8.42992 12.7225C8.51908 12.7201 8.60599 12.694 8.68163 12.6467L12.2383 10.4242C12.3103 10.3793 12.3696 10.3167 12.4108 10.2425C12.452 10.1683 12.4736 10.0849 12.4736 10C12.4736 9.91516 12.452 9.8317 12.4108 9.75749C12.3696 9.68328 12.3103 9.62077 12.2383 9.57585Z" stroke="#4A5568" stroke-linejoin="round"/>
</svg>
