<svg preserveAspectRatio="none" width="100%" height="100%" overflow="visible" style="display: block;" viewBox="0 0 13.125 13.125" fill="none" xmlns="http://www.w3.org/2000/svg">
<g id="Group">
<path id="Vector" d="M6.5625 9.22917C7.26974 9.22917 7.94802 8.94822 8.44812 8.44812C8.94822 7.94802 9.22917 7.26974 9.22917 6.5625C9.22917 5.85526 8.94822 5.17698 8.44812 4.67688C7.94802 4.17678 7.26974 3.89583 6.5625 3.89583C5.85526 3.89583 5.17698 4.17678 4.67688 4.67688C4.17678 5.17698 3.89583 5.85526 3.89583 6.5625C3.89583 7.26974 4.17678 7.94802 4.67688 8.44812C5.17698 8.94822 5.85526 9.22917 6.5625 9.22917Z" stroke="var(--stroke-0, white)" stroke-width="1.125" stroke-linecap="round" stroke-linejoin="round"/>
<path id="Vector_2" d="M0.5625 9.22917V3.89583C0.5625 3.01178 0.913689 2.16393 1.53881 1.53881C2.16393 0.913689 3.01178 0.5625 3.89583 0.5625H9.22917C10.1132 0.5625 10.9611 0.913689 11.5862 1.53881C12.2113 2.16393 12.5625 3.01178 12.5625 3.89583V9.22917C12.5625 10.1132 12.2113 10.9611 11.5862 11.5862C10.9611 12.2113 10.1132 12.5625 9.22917 12.5625H3.89583C3.01178 12.5625 2.16393 12.2113 1.53881 11.5862C0.913689 10.9611 0.5625 10.1132 0.5625 9.22917Z" stroke="var(--stroke-0, white)" stroke-width="1.125"/>
<path id="Vector_3" d="M10.2292 2.90343L10.2367 2.89518" stroke="var(--stroke-0, white)" stroke-width="1.125" stroke-linecap="round" stroke-linejoin="round"/>
</g>
</svg>
